<svg width="50" height="49" viewBox="0 0 50 49" fill="none" xmlns="http://www.w3.org/2000/svg">
<path d="M16.9824 38.0324C16.9824 38.2238 16.7578 38.377 16.4746 38.377C16.1523 38.4057 15.9277 38.2525 15.9277 38.0324C15.9277 37.841 16.1523 37.6879 16.4355 37.6879C16.7285 37.6592 16.9824 37.8123 16.9824 38.0324ZM13.9453 37.6018C13.877 37.7932 14.0723 38.0133 14.3652 38.0707C14.6191 38.1664 14.9121 38.0707 14.9707 37.8793C15.0293 37.6879 14.8438 37.4678 14.5508 37.3816C14.2969 37.3146 14.0137 37.4104 13.9453 37.6018ZM18.2617 37.4391C17.9785 37.5061 17.7832 37.6879 17.8125 37.908C17.8418 38.0994 18.0957 38.2238 18.3887 38.1568C18.6719 38.0898 18.8672 37.908 18.8379 37.7166C18.8086 37.5348 18.5449 37.4104 18.2617 37.4391ZM24.6875 0.765625C11.1426 0.765625 0.78125 10.8432 0.78125 24.1172C0.78125 34.7307 7.59766 43.8129 17.334 47.0094C18.584 47.2295 19.0234 46.4734 19.0234 45.8514C19.0234 45.258 18.9941 41.985 18.9941 39.9752C18.9941 39.9752 12.1582 41.4107 10.7227 37.1232C10.7227 37.1232 9.60938 34.3383 8.00781 33.6205C8.00781 33.6205 5.77148 32.118 8.16406 32.1467C8.16406 32.1467 10.5957 32.3381 11.9336 34.6158C14.0723 38.31 17.6562 37.2477 19.0527 36.616C19.2773 35.0848 19.9121 34.0225 20.6152 33.3908C15.1562 32.7975 9.64844 32.0223 9.64844 22.8156C9.64844 20.1838 10.3906 18.8631 11.9531 17.1787C11.6992 16.5566 10.8691 13.9918 12.207 10.6805C14.248 10.0584 18.9453 13.2645 18.9453 13.2645C20.8984 12.7285 22.998 12.451 25.0781 12.451C27.1582 12.451 29.2578 12.7285 31.2109 13.2645C31.2109 13.2645 35.9082 10.0488 37.9492 10.6805C39.2871 14.0014 38.457 16.5566 38.2031 17.1787C39.7656 18.8727 40.7227 20.1934 40.7227 22.8156C40.7227 32.051 34.9707 32.7879 29.5117 33.3908C30.4102 34.1469 31.1719 35.5824 31.1719 37.8314C31.1719 41.0566 31.1426 45.0475 31.1426 45.8322C31.1426 46.4543 31.5918 47.2104 32.832 46.9902C42.5977 43.8129 49.2188 34.7307 49.2188 24.1172C49.2188 10.8432 38.2324 0.765625 24.6875 0.765625ZM10.2734 33.7736C10.1465 33.8693 10.1758 34.0895 10.3418 34.2713C10.498 34.4244 10.7227 34.4914 10.8496 34.367C10.9766 34.2713 10.9473 34.0512 10.7812 33.8693C10.625 33.7162 10.4004 33.6492 10.2734 33.7736ZM9.21875 32.9984C9.15039 33.1228 9.24805 33.276 9.44336 33.3717C9.59961 33.4674 9.79492 33.4387 9.86328 33.3047C9.93164 33.1803 9.83398 33.0271 9.63867 32.9314C9.44336 32.874 9.28711 32.9027 9.21875 32.9984ZM12.3828 36.4055C12.2266 36.5299 12.2852 36.817 12.5098 36.9988C12.7344 37.2189 13.0176 37.2477 13.1445 37.0945C13.2715 36.9701 13.2129 36.683 13.0176 36.5012C12.8027 36.2811 12.5098 36.2523 12.3828 36.4055ZM11.2695 34.9986C11.1133 35.0943 11.1133 35.3432 11.2695 35.5633C11.4258 35.7834 11.6895 35.8791 11.8164 35.7834C11.9727 35.659 11.9727 35.4102 11.8164 35.19C11.6797 34.9699 11.4258 34.8742 11.2695 34.9986Z" fill="#8382FF"/>
</svg>
