<svg width="50" height="50" viewBox="0 0 50 50" fill="none" xmlns="http://www.w3.org/2000/svg">
<path d="M43.75 3.125H6.24023C4.52148 3.125 3.125 4.54102 3.125 6.2793V43.7207C3.125 45.459 4.52148 46.875 6.24023 46.875H43.75C45.4688 46.875 46.875 45.459 46.875 43.7207V6.2793C46.875 4.54102 45.4688 3.125 43.75 3.125ZM16.3477 40.625H9.86328V19.7461H16.3574V40.625H16.3477ZM13.1055 16.8945C11.0254 16.8945 9.3457 15.2051 9.3457 13.1348C9.3457 11.0645 11.0254 9.375 13.1055 9.375C15.1758 9.375 16.8652 11.0645 16.8652 13.1348C16.8652 15.2148 15.1855 16.8945 13.1055 16.8945ZM40.6543 40.625H34.1699V30.4688C34.1699 28.0469 34.1211 24.9316 30.8008 24.9316C27.4219 24.9316 26.9043 27.5684 26.9043 30.293V40.625H20.4199V19.7461H26.6406V22.5977H26.7285C27.5977 20.957 29.7168 19.2285 32.8711 19.2285C39.4336 19.2285 40.6543 23.5547 40.6543 29.1797V40.625Z" fill="#8382FF"/>
</svg>
